<svg width="36" height="40" viewBox="0 0 36 40" fill="none" xmlns="http://www.w3.org/2000/svg">
<path d="M35.39 27.8527C34.8005 26.7186 33.4396 26.2196 32.2603 26.6278L23.4146 29.8031C22.9608 28.9867 22.0992 28.4421 21.1012 28.5329L16.5649 28.9867C15.9751 29.032 15.3856 28.8959 14.8866 28.5785L11.8923 26.6733C9.57888 24.9494 6.44887 24.5865 3.77241 25.7205L0.370224 27.2628C0.0525333 27.3988 -0.0835289 27.7618 0.0525341 28.0791C0.188597 28.3968 0.551537 28.5329 0.868896 28.3968L4.27108 26.8999C6.5392 25.9471 9.2155 26.2648 11.2115 27.7162L14.2508 29.6214C14.9767 30.0752 15.8839 30.3017 16.7458 30.2112L21.2821 29.7575C21.8263 29.7122 22.3709 30.0752 22.5069 30.6195C22.643 31.1637 22.2801 31.7535 21.7358 31.9348L18.2428 33.0239C17.0635 33.3868 15.7478 33.4777 14.5229 33.2052L11.5746 32.6154C11.2569 32.5702 10.9395 32.7515 10.8487 33.1144C10.7579 33.4774 10.9847 33.7495 11.3477 33.8403L14.2961 34.4301C14.8859 34.5662 15.4301 34.6114 16.0199 34.6114C16.8819 34.6114 17.7891 34.4753 18.6058 34.2032L22.0987 33.1144C23.0515 32.8423 23.6866 31.9804 23.7318 31.0276L32.7589 27.7615C33.394 27.5346 34.0743 27.8068 34.392 28.3966C34.5733 28.7143 34.5733 29.0769 34.4828 29.4398C34.392 29.8028 34.1198 30.0749 33.8025 30.2109L17.6073 38.4677C16.9722 38.7854 16.2463 38.8759 15.566 38.649L5.08732 35.5189C4.36145 35.2921 3.59036 35.2921 2.86448 35.4281L1.32224 35.7461C1.00455 35.8369 0.777984 36.1543 0.868482 36.472C0.959296 36.7897 1.27667 37.0163 1.59435 36.9258L3.09131 36.6081C3.63557 36.472 4.18009 36.5173 4.72436 36.6533L15.2031 39.7834C15.566 39.8742 15.9742 39.9647 16.3371 39.9647C16.9722 39.9647 17.562 39.8287 18.1515 39.511L34.2551 31.3004C34.8902 30.9827 35.3439 30.4384 35.5253 29.8034C35.7522 29.1231 35.7069 28.4428 35.3892 27.853L35.39 27.8527ZM17.6533 23.9515C21.0555 23.9515 24.14 22.4997 26.3175 20.2316C26.3628 20.1864 26.4084 20.1408 26.4084 20.0956C28.3588 17.9635 29.5836 15.1055 29.5836 11.9757C29.5836 5.39821 24.231 0 17.6533 0C11.0758 0 5.723 5.44341 5.723 12.021C5.723 18.5988 11.0759 23.9514 17.6533 23.9514L17.6533 23.9515ZM9.48808 5.08073C10.1684 5.48892 10.849 5.8066 11.6201 6.12399C11.1211 7.71183 10.8037 9.48089 10.7581 11.4314H6.94778C7.08384 8.98198 8.03632 6.80467 9.48799 5.08081L9.48808 5.08073ZM28.3589 11.3861H24.5485C24.5032 9.43569 24.1855 7.66623 23.6865 6.0787C24.4576 5.80658 25.1835 5.44365 25.8186 5.03545C27.3153 6.80458 28.2228 8.9819 28.3588 11.386L28.3589 11.3861ZM25.8186 18.9616C25.1383 18.5534 24.4577 18.2358 23.6866 17.9184C24.1856 16.3305 24.503 14.5615 24.5486 12.611H28.3589C28.2229 15.0604 27.3154 17.238 25.8187 18.9616L25.8186 18.9616ZM18.2884 18.1453C19.6037 18.1905 20.8742 18.3722 22.0988 18.6895C21.1916 20.8668 19.8306 22.3638 18.2884 22.6815V18.1453ZM18.2884 16.9204V12.6111H23.3236C23.2784 14.3802 22.9607 16.0585 22.5073 17.5102C21.1916 17.1473 19.7398 16.9659 18.2884 16.9204V16.9204ZM18.2884 11.3862V7.12204C19.7853 7.07679 21.1916 6.84991 22.5069 6.48698C22.9607 7.93874 23.2781 9.61707 23.3233 11.3861L18.2884 11.3862ZM18.2884 5.8975V1.36125C19.7853 1.67895 21.1463 3.17559 22.0988 5.35323C20.8739 5.6706 19.6037 5.85191 18.2884 5.89748V5.8975ZM17.0635 5.8975C15.7482 5.85225 14.4777 5.67062 13.2532 5.35325C14.1603 3.17593 15.5213 1.67897 17.0635 1.36127V5.8975ZM17.0635 7.12204V11.3862H11.983C12.0283 9.61705 12.3459 7.93873 12.7994 6.48705C14.1603 6.84999 15.5665 7.07686 17.0635 7.12211V7.12204ZM17.0635 12.6111V16.8752C15.5666 16.9205 14.1603 17.1473 12.845 17.5103C12.3912 16.0585 12.0739 14.3802 12.0286 12.6111H17.0635V12.6111ZM17.0635 18.1453V22.6815C15.5666 22.3638 14.2056 20.8672 13.2532 18.6895C14.4325 18.3722 15.7482 18.1905 17.0635 18.1453V18.1453ZM13.8426 22.0464C12.5273 21.5474 11.3476 20.8216 10.3496 19.8691C10.8939 19.5514 11.4384 19.3249 12.028 19.098C12.5273 20.2773 13.1624 21.2753 13.8426 22.0464V22.0464ZM23.2327 19.0977C23.8225 19.3246 24.412 19.5967 24.911 19.8688C23.913 20.8216 22.7337 21.5472 21.418 22.0462C22.1439 21.2754 22.7789 20.2773 23.2327 19.0978V19.0977ZM23.2327 4.94464C22.7336 3.7653 22.1439 2.76733 21.4183 1.99625C22.7337 2.49525 23.9133 3.22111 24.9113 4.17356C24.412 4.44569 23.8677 4.71781 23.2327 4.94468V4.94464ZM12.0735 4.94464C11.4837 4.71777 10.8941 4.44564 10.3952 4.17352C11.3931 3.22075 12.5725 2.49519 13.8882 1.99621C13.1623 2.76733 12.5272 3.76534 12.0735 4.9446V4.94464ZM10.7581 12.611C10.8034 14.5614 11.1211 16.3309 11.6201 17.9184C10.849 18.1905 10.1232 18.5534 9.48808 18.9616C8.03632 17.2378 7.08387 15.0152 6.94786 12.6111L10.7581 12.611Z" fill="#68787B"/>
</svg>
