<svg width="50" height="50" viewBox="0 0 50 50" fill="none" xmlns="http://www.w3.org/2000/svg">
<path d="M25.6557 8.60245C26.1458 8.60245 26.543 8.2052 26.543 7.71512C26.543 7.22539 26.1458 6.82815 25.6557 6.82815C25.1656 6.82815 24.7684 7.22539 24.7684 7.71512C24.7684 8.2052 25.1656 8.60245 25.6557 8.60245Z" fill="#68787B" stroke="#68787B" stroke-width="0.1"/>
<path d="M36.1651 37.6744L36.1567 37.6828C36.1368 37.7025 36.1267 37.722 36.1137 37.7481L36.1129 37.7497C36.0999 37.7756 36.0838 37.8078 36.0521 37.8396L30.8194 43.0723L30.8193 43.0724L30.7839 43.037L36.1651 37.6744ZM36.1651 37.6744L36.1689 37.6631M36.1651 37.6744L36.1689 37.6631M36.1689 37.6631L36.1689 37.663L36.169 37.6629L36.1691 37.6625L36.1695 37.6611L36.1713 37.6559L36.1773 37.637C36.1823 37.6211 36.189 37.5994 36.1956 37.576C36.2023 37.5526 36.2091 37.5271 36.2143 37.5037C36.2192 37.4814 36.2237 37.4571 36.2237 37.4381V37.386V37.3859L36.2758 10.2777L38.74 10.2774V45.865L12.3621 45.8647L12.3623 10.2772H14.9309L36.1689 37.6631ZM11.3742 46.8525C11.4682 46.9465 11.5978 47.0016 11.749 47.0098L11.7493 47.0113H11.7889H39.3134C39.4817 47.0113 39.6259 46.955 39.7282 46.8528C39.8304 46.7505 39.8868 46.6063 39.8868 46.4378L39.8864 9.70362C39.8864 9.53531 39.8302 9.3911 39.7279 9.28884C39.6257 9.18658 39.4815 9.13019 39.313 9.13019L33.6998 9.13056C33.3649 7.974 32.2018 7.142 30.8364 7.142H29.362C29.079 5.35981 27.5509 3.95 25.6562 3.95C23.7614 3.95 22.2334 5.35981 21.9504 7.142H20.476C19.1104 7.142 17.9474 7.97399 17.6126 9.13056H11.7888C11.6205 9.13056 11.4763 9.18685 11.374 9.28905C11.2718 9.39127 11.2154 9.53548 11.2154 9.70399L11.2154 46.4382L11.2154 46.4382C11.2156 46.6064 11.272 46.7504 11.3742 46.8525ZM30.9909 38.0107L34.2736 38.011L30.9909 41.2937V38.0107ZM35.1817 10.2247L35.1296 36.812H30.4701C30.3018 36.812 30.1576 36.8683 30.0554 36.9705C29.9531 37.0727 29.8967 37.2169 29.8967 37.3854V42.0447H16.0775V10.2247H17.4948V13.0002C17.4948 13.1685 17.5511 13.3127 17.6533 13.415C17.7555 13.5172 17.8997 13.5736 18.0682 13.5736H33.191C33.3593 13.5736 33.5035 13.5173 33.6058 13.4151C33.7081 13.3129 33.7644 13.1687 33.7644 13.0002V10.2247H35.1817ZM18.6415 9.75601C18.6415 9.756 18.6415 9.756 18.6415 9.756C18.6415 8.95494 19.447 8.28868 20.4232 8.28868H22.464C22.6323 8.28868 22.7765 8.2324 22.8788 8.13019C22.981 8.02797 23.0374 7.88376 23.0374 7.71525C23.0374 6.27769 24.2185 5.09662 25.6561 5.09662C27.0936 5.09662 28.2747 6.27769 28.2747 7.71525C28.2747 7.88356 28.331 8.02777 28.4332 8.13003C28.5354 8.2323 28.6796 8.28868 28.8481 8.28868H30.8889C31.8651 8.28868 32.6706 8.95532 32.6706 9.75601V12.4794L18.642 12.4797L18.6415 9.75601Z" fill="#68787B" stroke="#68787B" stroke-width="0.1"/>
</svg>
