<svg width="44" height="44" viewBox="0 0 44 44" fill="none" xmlns="http://www.w3.org/2000/svg">
<path d="M38.8872 6.86791H33.859V2.83767C33.859 1.7971 33.0123 0.95 31.9714 0.95H12.1266C11.086 0.95 10.2389 1.79671 10.2389 2.83767V6.86828H8.07645V1.52518C8.07645 1.20755 7.81935 0.950038 7.50131 0.950038H4.56209C2.57064 0.950038 0.95 2.56641 0.95 4.55331V4.60531L0.95 4.60605L0.95 4.60608C0.958972 19.9453 0.966022 27.6405 0.971194 31.5051C0.973781 33.4373 0.975898 34.412 0.977552 34.9058C0.979198 35.3974 0.980345 35.4136 0.981311 35.4247L0.981372 35.4254C1.17891 37.4152 2.96865 38.9703 5.05315 38.9703H36.411V42.4747C36.411 42.7923 36.6681 43.0498 36.9861 43.0498H38.8853C41.1818 43.0498 43.05 41.1866 43.05 38.8958V11.3035C43.05 11.3011 43.0499 11.2989 43.0496 11.2969C43.0494 11.2946 43.049 11.2926 43.0487 11.2909C43.0489 11.289 43.049 11.2868 43.049 11.2846L43.049 11.2828L43.0384 10.981C43.0384 10.9808 43.0384 10.9806 43.0384 10.9804C43.0228 8.71265 41.1611 6.86791 38.8872 6.86791ZM4.61183 2.10002V2.09997H6.92624V6.86799H4.36186C3.1143 6.86799 2.09964 5.85332 2.09964 4.60576V4.55303C2.09964 3.20092 3.20395 2.10002 4.56183 2.10002H4.61183ZM2.12783 35.3488C2.11947 34.9013 2.10568 14.5059 2.10122 7.15529C2.7036 7.69027 3.49464 8.01759 4.36188 8.01759H10.2386V32.6695C10.2386 33.7101 11.0853 34.5572 12.1263 34.5572H31.9711C33.0116 34.5572 33.8587 33.7105 33.8587 32.6695V8.01759H38.8869C40.5308 8.01759 41.8774 9.35 41.8885 11.0034L41.8886 11.0049L41.8992 11.3045C41.8992 11.3048 41.8992 11.3051 41.8992 11.3054C41.898 12.9602 40.546 14.3069 38.8844 14.3069H36.9853C36.6676 14.3069 36.4101 14.5643 36.4101 14.882V37.8202L5.05292 37.8205C3.54904 37.8205 2.26591 36.7166 2.12783 35.3488ZM11.3885 2.83768C11.3885 2.43099 11.7195 2.10034 12.1258 2.10034H31.9706C32.3773 2.10034 32.708 2.43133 32.708 2.83768V32.6696C32.708 33.0763 32.377 33.4069 31.9706 33.4069H12.1258C11.7191 33.4069 11.3885 33.0759 11.3885 32.6696V2.83768ZM41.8997 38.8956C41.8997 40.5516 40.5472 41.8997 38.885 41.8997H37.561V15.4575H38.885C40.0699 15.4575 41.1407 14.9612 41.8997 14.1665V38.8956Z" fill="#68787B" stroke="#68787B" stroke-width="0.1"/>
<path d="M13.9969 11.8777H30.1024C30.6654 11.8777 31.1229 11.4199 31.1229 10.8572L31.1225 4.67824C31.1225 4.11523 30.6647 3.65776 30.102 3.65776H13.9969C13.4338 3.65776 12.9764 4.11557 12.9764 4.67825V10.8572C12.976 11.4197 13.4335 11.8774 13.9963 11.8777C13.9965 11.8777 13.9967 11.8777 13.9969 11.8777ZM14.1258 4.80774H29.9725L29.9721 10.7278H14.1254L14.1258 4.80774Z" fill="#68787B" stroke="#68787B" stroke-width="0.1"/>
<path d="M29.9363 13.7662H27.1074C26.4539 13.7662 25.9222 14.2976 25.9222 14.9514V17.7807C25.9222 18.4342 26.4536 18.9659 27.1074 18.9659H29.9363C30.5898 18.9659 31.1219 18.4342 31.1219 17.7807V14.9514C31.1219 14.2975 30.5901 13.7662 29.9363 13.7662ZM29.972 17.7803C29.972 17.7997 29.9563 17.8157 29.9363 17.8157H27.1074C27.088 17.8157 27.0724 17.8002 27.0724 17.7803V14.951C27.0724 14.9317 27.0881 14.916 27.1074 14.916H29.9363C29.9564 14.916 29.972 14.9322 29.972 14.951V17.7803Z" fill="#68787B" stroke="#68787B" stroke-width="0.1"/>
<path d="M23.4631 13.7662H20.6341C19.9807 13.7662 19.4485 14.2975 19.4485 14.9514V17.7807C19.4485 18.4342 19.9807 18.9659 20.6341 18.9659H23.4631C24.1165 18.9659 24.6483 18.4341 24.6483 17.7807V14.9514C24.6483 14.2975 24.1165 13.7662 23.4631 13.7662ZM23.498 17.7803C23.498 17.8001 23.4822 17.8157 23.4631 17.8157H20.6341C20.6142 17.8157 20.5984 17.7997 20.5984 17.7803V14.951C20.5984 14.9322 20.6141 14.916 20.6341 14.916H23.4631C23.4826 14.916 23.498 14.9316 23.498 14.951V17.7803Z" fill="#68787B" stroke="#68787B" stroke-width="0.1"/>
<path d="M14.1604 18.9661H16.9901C17.6435 18.9661 18.1753 18.4343 18.1753 17.7809V14.9515C18.1753 14.2981 17.6439 13.7663 16.9901 13.7663H14.1604C13.5069 13.7663 12.9751 14.2977 12.9751 14.9515V17.7809C12.9751 18.4347 13.5069 18.9661 14.1604 18.9661ZM14.1254 14.9515C14.1254 14.9323 14.1411 14.9166 14.1604 14.9166H16.9901C17.0096 14.9166 17.025 14.9321 17.025 14.9515V17.7809C17.025 17.8007 17.0092 17.8162 16.9901 17.8162H14.1604C14.141 17.8162 14.1254 17.8008 14.1254 17.7809V14.9515Z" fill="#68787B" stroke="#68787B" stroke-width="0.1"/>
<path d="M29.9363 20.1467H27.1074C26.4539 20.1467 25.9222 20.6781 25.9222 21.3319V24.1616C25.9222 24.8151 26.4536 25.3469 27.1074 25.3469H29.9363C30.5898 25.3469 31.1219 24.8155 31.1219 24.1616V21.3319C31.1219 20.6781 30.5901 20.1467 29.9363 20.1467ZM29.972 24.1613C29.972 24.1801 29.9564 24.1962 29.9363 24.1962H27.1074C27.0879 24.1962 27.0724 24.1807 27.0724 24.1613V21.3315C27.0724 21.3123 27.0881 21.2966 27.1074 21.2966H29.9363C29.9564 21.2966 29.972 21.3127 29.972 21.3315V24.1613Z" fill="#68787B" stroke="#68787B" stroke-width="0.1"/>
<path d="M23.4631 20.1467H20.6341C19.9807 20.1467 19.4485 20.6781 19.4485 21.3319V24.1616C19.4485 24.8151 19.9807 25.3469 20.6341 25.3469H23.4631C24.1165 25.3469 24.6483 24.8154 24.6483 24.1616V21.3319C24.6483 20.6781 24.1165 20.1467 23.4631 20.1467ZM23.498 24.1613C23.498 24.1805 23.4823 24.1962 23.4631 24.1962H20.6341C20.6141 24.1962 20.5984 24.1801 20.5984 24.1613V21.3315C20.5984 21.3127 20.6141 21.2966 20.6341 21.2966H23.4631C23.4826 21.2966 23.498 21.3121 23.498 21.3315V24.1613Z" fill="#68787B" stroke="#68787B" stroke-width="0.1"/>
<path d="M14.1604 25.3467H16.9901C17.6435 25.3467 18.1753 24.8153 18.1753 24.1615V21.3317C18.1753 20.6783 17.6439 20.1465 16.9901 20.1465H14.1604C13.5069 20.1465 12.9751 20.6779 12.9751 21.3317V24.1615C12.9751 24.8153 13.5069 25.3467 14.1604 25.3467ZM14.1254 21.3321C14.1254 21.3128 14.1411 21.2971 14.1604 21.2971H16.9901C17.0096 21.2971 17.025 21.3127 17.025 21.3321V24.1618C17.025 24.1811 17.0093 24.1968 16.9901 24.1968H14.1604C14.1409 24.1968 14.1254 24.1812 14.1254 24.1618V21.3321Z" fill="#68787B" stroke="#68787B" stroke-width="0.1"/>
<path d="M29.9363 26.5273H27.1074C26.4539 26.5273 25.9222 27.0587 25.9222 27.7125V30.5422C25.9222 31.1957 26.4536 31.7274 27.1074 31.7274H29.9363C30.5898 31.7274 31.1219 31.196 31.1219 30.5422V27.7125C31.1219 27.0586 30.5901 26.5273 29.9363 26.5273ZM29.972 30.5418C29.972 30.5607 29.9564 30.5768 29.9363 30.5768H27.1074C27.0879 30.5768 27.0724 30.5612 27.0724 30.5418V27.7121C27.0724 27.6929 27.0881 27.6772 27.1074 27.6772H29.9363C29.9564 27.6772 29.972 27.6933 29.972 27.7121V30.5418Z" fill="#68787B" stroke="#68787B" stroke-width="0.1"/>
<path d="M23.4631 26.5273H20.6341C19.9807 26.5273 19.4485 27.0587 19.4485 27.7125V30.5422C19.4485 31.1957 19.9807 31.7274 20.6341 31.7274H23.4631C24.1165 31.7274 24.6483 31.196 24.6483 30.5422V27.7125C24.6483 27.0586 24.1165 26.5273 23.4631 26.5273ZM23.498 30.5418C23.498 30.5611 23.4823 30.5768 23.4631 30.5768H20.6341C20.6141 30.5768 20.5984 30.5607 20.5984 30.5418V27.7121C20.5984 27.6933 20.6141 27.6772 20.6341 27.6772H23.4631C23.4826 27.6772 23.498 27.6927 23.498 27.7121V30.5418Z" fill="#68787B" stroke="#68787B" stroke-width="0.1"/>
<path d="M14.1604 31.7272H16.9901C17.6435 31.7272 18.1753 31.1958 18.1753 30.542V27.7123C18.1753 27.0588 17.6439 26.5271 16.9901 26.5271H14.1604C13.5069 26.5271 12.9751 27.0585 12.9751 27.7123V30.542C12.9751 31.1959 13.5069 31.7272 14.1604 31.7272ZM14.1254 27.7127C14.1254 27.6934 14.1411 27.6777 14.1604 27.6777H16.9901C17.0096 27.6777 17.025 27.6933 17.025 27.7127V30.5424C17.025 30.5617 17.0093 30.5774 16.9901 30.5774H14.1604C14.1409 30.5774 14.1254 30.5618 14.1254 30.5424V27.7127Z" fill="#68787B" stroke="#68787B" stroke-width="0.1"/>
</svg>
