<svg width="103" height="36" viewBox="0 0 103 36" fill="none" xmlns="http://www.w3.org/2000/svg">
<path d="M54.8051 33.8633C54.6939 33.8633 54.6351 33.7815 54.6449 33.6605L55.462 27.004C55.4816 26.8634 55.5437 26.8045 55.6745 26.8045H56.2693C56.423 26.8045 56.4328 26.8928 56.423 27.004L56.1386 29.3493C56.6271 28.9791 57.2222 28.7771 57.8349 28.7736C58.6815 28.7736 59.1423 29.2185 59.1423 29.9348C59.1469 30.0056 59.1469 30.0766 59.1423 30.1474L58.8416 32.5712C58.7403 33.3988 58.2533 33.9451 57.2564 33.9451C56.6645 33.9556 56.0895 33.7471 55.6418 33.3595L55.5797 33.6605C55.5503 33.8044 55.498 33.8633 55.3672 33.8633H54.8051ZM58.1487 30.2946C58.1525 30.2511 58.1525 30.2073 58.1487 30.1638C58.1487 29.8596 57.9657 29.6372 57.4721 29.6372C56.9487 29.6638 56.4454 29.8473 56.0275 30.1638L55.7366 32.5778C56.0968 32.9002 56.5608 33.0824 57.044 33.0913C57.6192 33.0913 57.8317 32.7904 57.8709 32.4371L58.1487 30.2946Z" fill="#485659"/>
<path d="M61.5332 31.9633C61.5741 32.191 61.6016 32.4208 61.6155 32.6515C61.6886 32.4233 61.7765 32.1999 61.8788 31.9827L63.2413 29.0747C63.3038 28.9454 63.3532 28.8743 63.4848 28.8743H64.0345C64.176 28.8743 64.2582 28.9454 64.1957 29.0747L61.0757 35.6694C61.0264 35.7696 60.9638 35.8601 60.8421 35.8601H60.3846C60.253 35.8601 60.174 35.8019 60.2332 35.6694L61.0264 33.9052L59.9272 29.0747C59.8975 28.9454 59.9996 28.8743 60.1312 28.8743H60.7203C60.852 28.8743 60.8849 28.9551 60.9145 29.0747L61.5332 31.9633Z" fill="#485659"/>
<path d="M67.9547 32.3473C67.9503 32.4044 67.9503 32.4617 67.9547 32.5188C67.9547 32.8485 68.1884 33.0694 68.8991 33.0694H69.09C69.2348 33.0694 69.2743 33.1518 69.2644 33.2738L69.2249 33.6992C69.2249 33.8442 69.1427 33.8937 69.0012 33.8937H68.6721C67.4118 33.8937 66.9741 33.4881 66.9741 32.7628C66.9694 32.6749 66.9694 32.5869 66.9741 32.499L67.3196 29.6569H66.7602C66.6187 29.6569 66.5891 29.5876 66.599 29.4557L66.6384 29.0996C66.6384 28.9645 66.7207 28.915 66.8523 28.9051L67.4118 28.8655L67.5434 27.8368C67.5631 27.6918 67.6158 27.6324 67.7573 27.6324H68.3463C68.4878 27.6324 68.5306 27.705 68.5076 27.8368L68.3759 28.8655H69.4322C69.577 28.8655 69.6067 28.9348 69.5968 29.0469L69.5573 29.4656C69.5573 29.6074 69.475 29.6569 69.3335 29.6569H68.3068L67.9547 32.3473Z" fill="#485659"/>
<path d="M71.1255 33.69C71.1062 33.8346 71.0482 33.8937 70.9193 33.8937H70.3297C70.2008 33.8937 70.1525 33.8346 70.1718 33.69L70.7389 29.0646C70.7582 28.9332 70.8098 28.8609 70.9386 28.8609H71.5153C71.6539 28.8609 71.7022 28.9234 71.6829 29.0646L71.1255 33.69ZM71.8117 27.9181C71.7924 28.0495 71.7441 28.1119 71.6152 28.1119H71.0256C70.8967 28.1119 70.8484 28.0495 70.8677 27.9181L70.9773 27.0049C70.9966 26.8636 71.0578 26.8045 71.1867 26.8045H71.7731C71.902 26.8045 71.9438 26.8636 71.9213 27.0049L71.8117 27.9181Z" fill="#485659"/>
<path d="M73.8607 28.8881C73.9936 28.8881 74.0325 28.95 74.0228 29.0802L74.0033 29.4059C74.4662 29.0196 75.0515 28.8127 75.6531 28.823C76.2754 28.823 76.7356 29.0933 76.875 29.5069C77.3556 29.057 77.9911 28.8118 78.6478 28.823C79.4581 28.823 79.9443 29.2757 79.9443 29.9172C79.9489 29.9812 79.9489 30.0454 79.9443 30.1094L79.5035 33.6918C79.484 33.8351 79.4225 33.8937 79.2928 33.8937H78.7062C78.6057 33.8937 78.5247 33.8351 78.5474 33.6918L78.946 30.3927C78.9559 30.3302 78.9623 30.2671 78.9655 30.2038C78.9655 29.8782 78.7548 29.6795 78.2946 29.6795C77.7894 29.6967 77.3041 29.881 76.9139 30.2038C76.9187 30.2471 76.9187 30.2908 76.9139 30.3341L76.5055 33.6918C76.4828 33.8351 76.4244 33.8937 76.2948 33.8937H75.7146C75.6044 33.8937 75.5331 33.8351 75.5526 33.6918L75.9545 30.3732C75.9545 30.295 75.9739 30.2429 75.9739 30.2038C75.9739 29.8782 75.7633 29.6795 75.303 29.6795C74.8035 29.7018 74.3238 29.8818 73.932 30.1941L73.5204 33.6755C73.501 33.8188 73.4524 33.8774 73.3098 33.8774H72.7102C72.6 33.8774 72.5319 33.8188 72.5513 33.6755L73.1218 29.0802C73.1412 28.95 73.1898 28.8881 73.3227 28.8881H73.8607Z" fill="#485659"/>
<path d="M84.868 31.3991C84.8682 31.4248 84.8631 31.4502 84.8528 31.4737C84.8426 31.4972 84.8276 31.5181 84.8088 31.5352C84.79 31.5522 84.7679 31.565 84.7439 31.5725C84.7199 31.5801 84.6945 31.5823 84.6696 31.5791H81.9812L81.8724 32.4399C81.8724 32.5413 81.8532 32.6101 81.8532 32.6493C81.8532 32.993 82.09 33.2058 82.7717 33.2058C83.5238 33.2058 83.7895 32.9439 83.8407 32.5512L83.8599 32.3875C83.861 32.3601 83.8677 32.3332 83.8795 32.3085C83.8912 32.2838 83.9078 32.2619 83.9283 32.2441C83.9487 32.2263 83.9725 32.213 83.9982 32.205C84.0238 32.197 84.0509 32.1945 84.0775 32.1977H84.5704C84.7016 32.1977 84.74 32.2664 84.7304 32.3875L84.7112 32.561C84.612 33.389 84.1575 33.9455 82.7141 33.9455C81.4596 33.9455 80.9347 33.4709 80.9347 32.7508C80.9296 32.6876 80.9296 32.6241 80.9347 32.561L81.2227 30.1553C81.3219 29.3273 81.8436 28.7708 83.2678 28.7708C84.4936 28.7708 85.0153 29.2454 85.0153 29.9622C85.02 30.0265 85.02 30.091 85.0153 30.1553L84.868 31.3991ZM82.0708 30.8623H84.0487L84.1255 30.2568C84.1315 30.2024 84.1315 30.1475 84.1255 30.0931C84.1255 29.7495 83.8855 29.5269 83.2038 29.5269C82.4645 29.5269 82.1861 29.8018 82.138 30.2044L82.0708 30.8623Z" fill="#485659"/>
<path d="M87.199 28.8976C87.3286 28.8976 87.3805 28.9595 87.3707 29.0898L87.3513 29.4158C87.8346 29.031 88.433 28.822 89.0493 28.8226C89.8627 28.8226 90.3455 29.2854 90.3455 29.9405C90.3498 30.0132 90.3498 30.0861 90.3455 30.1588L89.9146 33.6917C89.8951 33.8351 89.8335 33.8937 89.6942 33.8937H89.1239C89.0137 33.8937 88.9424 33.8546 88.9651 33.6917L89.3637 30.3902C89.3735 30.3276 89.38 30.2645 89.3831 30.2012C89.3831 29.8753 89.1952 29.6765 88.7123 29.6765C88.1955 29.7009 87.6978 29.8802 87.2832 30.1914L86.862 33.6917C86.8425 33.8351 86.781 33.8937 86.6513 33.8937H86.0616C85.9514 33.8937 85.8801 33.8546 85.9028 33.6917L86.4731 29.0931C86.4925 28.9627 86.5412 28.9008 86.6708 28.9008L87.199 28.8976Z" fill="#485659"/>
<path d="M91.5777 30.1932C91.6757 29.3734 92.2835 28.8226 93.7475 28.8226C95.0186 28.8226 95.6232 29.2924 95.6232 30.0118C95.628 30.0722 95.628 30.1328 95.6232 30.1932L95.3291 32.5748C95.2278 33.3946 94.633 33.9455 93.1691 33.9455C91.8881 33.9455 91.2836 33.4659 91.2836 32.7433C91.279 32.6873 91.279 32.6309 91.2836 32.5748L91.5777 30.1932ZM94.6526 30.2742V30.1738C94.6526 29.7914 94.3422 29.6035 93.6723 29.6035C92.9142 29.6035 92.5809 29.8433 92.5319 30.2742L92.2476 32.4938C92.2431 32.5304 92.2431 32.5674 92.2476 32.604C92.2476 32.9831 92.5417 33.1646 93.2279 33.1646C93.986 33.1646 94.3193 32.9248 94.3684 32.4938L94.6526 30.2742Z" fill="#485659"/>
<path d="M102.809 28.8743C102.938 28.8743 103.01 28.9464 102.958 29.0775L101.101 33.7135C101.053 33.8446 101.011 33.8937 100.882 33.8937H100.193C100.063 33.8937 100.034 33.8347 100.012 33.7135L99.6332 30.7287C99.6138 30.5551 99.5944 30.2832 99.5944 30.2307L99.4133 30.7287L98.207 33.7135C98.1553 33.8347 98.1164 33.8937 97.9871 33.8937H97.3079C97.1753 33.8937 97.1559 33.8446 97.1365 33.7135L96.4574 29.0775C96.438 28.9464 96.5285 28.8743 96.6579 28.8743H97.2174C97.3468 28.8743 97.3856 28.9562 97.405 29.0775L97.8448 32.226C97.8674 32.3768 97.8868 32.6094 97.8868 32.6585C97.9256 32.5108 97.9753 32.3662 98.0356 32.226L99.2839 29.0775C99.3324 28.9562 99.3939 28.8743 99.5135 28.8743H100.102C100.231 28.8743 100.283 28.9562 100.293 29.0775L100.681 32.226C100.704 32.3866 100.723 32.6683 100.723 32.6683C100.723 32.6683 100.801 32.4062 100.872 32.226L102.091 29.0775C102.14 28.9562 102.191 28.8743 102.321 28.8743H102.809Z" fill="#485659"/>
<path d="M36.7455 7.97565H40.1466C40.1841 7.97535 40.2213 7.98251 40.256 7.99671C40.2907 8.01091 40.3223 8.03188 40.3488 8.05838C40.3753 8.08489 40.3963 8.1164 40.4105 8.15109C40.4247 8.18578 40.4319 8.22295 40.4316 8.26043V9.30768H40.597C40.6409 9.30912 40.6845 9.30032 40.7244 9.28198C40.7643 9.26365 40.7993 9.23627 40.8268 9.20204C41.5415 8.35 42.6974 7.62198 44.6048 7.62198C48.3046 7.62198 51.2966 10.8556 51.2966 15.1525C51.2966 19.3392 48.5229 22.6555 44.8231 22.6555C42.7181 22.6555 41.4588 21.7874 40.8268 20.9514C40.8004 20.9152 40.7659 20.8857 40.7259 20.8654C40.686 20.845 40.6418 20.8344 40.597 20.8343H40.443V28.2684C40.4433 28.306 40.4362 28.3433 40.422 28.3781C40.4078 28.4129 40.3869 28.4446 40.3604 28.4712C40.3339 28.4979 40.3024 28.5191 40.2677 28.5336C40.2329 28.548 40.1957 28.5555 40.1581 28.5555H36.757C36.6812 28.5549 36.6087 28.5243 36.5554 28.4706C36.502 28.4168 36.472 28.3441 36.472 28.2684V8.26043C36.472 8.18685 36.5004 8.11611 36.5514 8.06302C36.6024 8.00993 36.6719 7.97862 36.7455 7.97565ZM47.259 15.125C47.259 12.895 45.7101 11.3999 43.812 11.3999C41.7437 11.3999 40.3856 13.1131 40.3856 15.125C40.3856 17.518 41.962 18.9029 43.8326 18.9029C45.763 18.9029 47.259 17.3802 47.259 15.125Z" fill="#485659"/>
<path d="M52.8018 18.7674H54.7321C54.8079 18.7674 54.8806 18.7374 54.9345 18.6841C54.9883 18.6308 55.0188 18.5583 55.0194 18.4826V5.73189C55.0194 5.6943 55.0119 5.65708 54.9975 5.62238C54.983 5.58768 54.9618 5.55618 54.9351 5.52971C54.9084 5.50323 54.8767 5.4823 54.8419 5.46813C54.8071 5.45395 54.7698 5.44681 54.7321 5.44711H52.8018C52.7637 5.44772 52.7258 5.44075 52.6905 5.42659C52.6551 5.41244 52.6229 5.39139 52.5957 5.36467C52.5685 5.33795 52.547 5.3061 52.5322 5.27097C52.5175 5.23584 52.5099 5.19813 52.5099 5.16004V2.19743C52.5099 2.15944 52.5175 2.12184 52.5323 2.08683C52.547 2.05183 52.5686 2.02012 52.5958 1.99358C52.623 1.96705 52.6553 1.94622 52.6906 1.93232C52.726 1.91842 52.7638 1.91173 52.8018 1.91265H58.7031C58.7407 1.91235 58.778 1.91949 58.8129 1.93366C58.8477 1.94784 58.8794 1.96877 58.9061 1.99524C58.9328 2.02172 58.954 2.05321 58.9685 2.08792C58.9829 2.12262 58.9904 2.15984 58.9904 2.19743V18.4803C58.9904 18.5558 59.0204 18.6283 59.0738 18.6817C59.1273 18.7351 59.1998 18.7651 59.2753 18.7651H61.2057C61.2815 18.7651 61.3542 18.795 61.408 18.8483C61.4618 18.9017 61.4923 18.9741 61.4929 19.0499V22.0171C61.4923 22.0928 61.4618 22.1652 61.408 22.2186C61.3542 22.2719 61.2815 22.3018 61.2057 22.3018H52.8018C52.726 22.3018 52.6533 22.2719 52.5995 22.2186C52.5457 22.1652 52.5151 22.0928 52.5145 22.0171V19.0522C52.5151 18.9764 52.5457 18.904 52.5995 18.8506C52.6533 18.7973 52.726 18.7674 52.8018 18.7674Z" fill="#485659"/>
<path d="M62.8488 15.125C62.8488 10.8028 65.7604 7.62198 69.4327 7.62198C71.1953 7.62198 72.4753 8.2834 73.3186 9.21122C73.3453 9.24102 73.3779 9.26498 73.4142 9.28158C73.4506 9.29818 73.4901 9.30707 73.5301 9.30768H73.7139V8.26043C73.7139 8.1849 73.7439 8.11247 73.7974 8.05906C73.8508 8.00566 73.9233 7.97565 73.9989 7.97565H77.3907C77.4283 7.97535 77.4654 7.98251 77.5002 7.99671C77.5349 8.01091 77.5664 8.03188 77.5929 8.05838C77.6194 8.08489 77.6404 8.1164 77.6546 8.15109C77.6688 8.18578 77.676 8.22295 77.6757 8.26043V18.0462C77.6757 18.2954 77.7747 18.5343 77.951 18.7104C78.1273 18.8866 78.3663 18.9855 78.6156 18.9855C78.6912 18.9855 78.7637 19.0155 78.8171 19.0689C78.8705 19.1224 78.9006 19.1948 78.9006 19.2703V22.0262C78.9 22.1016 78.8697 22.1737 78.8164 22.2269C78.7631 22.2802 78.691 22.3104 78.6156 22.311H75.3087C75.1045 22.3168 74.9011 22.2818 74.7105 22.208C74.52 22.1343 74.3461 22.0232 74.199 21.8814C74.052 21.7396 73.9348 21.5699 73.8542 21.3822C73.7737 21.1945 73.7314 20.9926 73.73 20.7884H73.576C73.5312 20.7885 73.487 20.7991 73.4471 20.8195C73.4072 20.8398 73.3726 20.8693 73.3462 20.9055C72.5856 21.9321 71.4503 22.6647 69.4602 22.6647C65.7857 22.6555 62.8488 19.4196 62.8488 15.125ZM73.7576 15.1525C73.7576 12.787 72.1788 11.455 70.3105 11.455C68.4422 11.455 66.8842 12.895 66.8842 15.1525C66.8842 17.4101 68.4353 18.85 70.3312 18.85C72.3971 18.85 73.7576 17.1643 73.7576 15.1525Z" fill="#485659"/>
<path d="M83.1703 17.8694V11.7673C83.1703 11.7297 83.1628 11.6925 83.1483 11.6578C83.1339 11.6231 83.1127 11.5916 83.086 11.5651C83.0593 11.5387 83.0276 11.5177 82.9928 11.5036C82.9579 11.4894 82.9206 11.4822 82.883 11.4825H81.0882C81.0125 11.4819 80.94 11.4514 80.8866 11.3976C80.8332 11.3439 80.8033 11.2712 80.8033 11.1955V8.26041C80.8033 8.18488 80.8333 8.11245 80.8867 8.05904C80.9402 8.00564 81.0127 7.97563 81.0882 7.97563H83.1565C83.1943 7.97564 83.2317 7.96812 83.2666 7.95353C83.3015 7.93893 83.3331 7.91754 83.3596 7.89061C83.3861 7.86367 83.407 7.83174 83.4211 7.79665C83.4351 7.76157 83.442 7.72405 83.4414 7.68626V4.34471C83.442 4.26898 83.4726 4.19655 83.5264 4.1432C83.5802 4.08986 83.6529 4.05993 83.7287 4.05994H86.8563C86.9317 4.06054 87.0038 4.09073 87.0571 4.14401C87.1104 4.19729 87.1406 4.26937 87.1413 4.34471V7.68626C87.1412 7.762 87.1712 7.83468 87.2246 7.88845C87.2779 7.94222 87.3504 7.97273 87.4262 7.97334H90.6641C90.7018 7.97303 90.7392 7.98026 90.7741 7.9946C90.809 8.00895 90.8406 8.03012 90.8671 8.05687C90.8937 8.08362 90.9146 8.11541 90.9287 8.15036C90.9428 8.18532 90.9497 8.22274 90.9491 8.26041V11.1955C90.9494 11.2331 90.9422 11.2703 90.9281 11.3051C90.9139 11.34 90.8929 11.3716 90.8664 11.3983C90.84 11.425 90.8084 11.4462 90.7737 11.4606C90.739 11.4751 90.7018 11.4825 90.6641 11.4825H87.4262C87.3506 11.4825 87.2782 11.5125 87.2247 11.5659C87.1713 11.6194 87.1413 11.6918 87.1413 11.7673V17.8441C87.1413 18.4688 87.3871 18.7398 88.0398 18.7398H90.501C90.5386 18.7398 90.5758 18.7472 90.6106 18.7617C90.6453 18.7761 90.6768 18.7973 90.7033 18.824C90.7298 18.8507 90.7507 18.8824 90.7649 18.9172C90.7791 18.952 90.7862 18.9893 90.7859 19.0269V22.0124C90.7859 22.088 90.7559 22.1604 90.7025 22.2138C90.649 22.2672 90.5765 22.2972 90.501 22.2972H87.6583C84.7743 22.3018 83.1703 21.0065 83.1703 17.8694Z" fill="#485659"/>
<path d="M95.2212 17.8694V11.7673C95.2212 11.7299 95.2138 11.6929 95.1995 11.6583C95.1851 11.6238 95.1642 11.5924 95.1377 11.5659C95.1112 11.5395 95.0798 11.5185 95.0452 11.5042C95.0107 11.4899 94.9736 11.4825 94.9362 11.4825H93.1414C93.0653 11.4825 92.9922 11.4523 92.9383 11.3985C92.8845 11.3446 92.8542 11.2716 92.8542 11.1955V8.26041C92.8542 8.22282 92.8616 8.1856 92.8761 8.1509C92.8906 8.1162 92.9118 8.0847 92.9385 8.05823C92.9652 8.03175 92.9968 8.01082 93.0317 7.99665C93.0665 7.98247 93.1038 7.97533 93.1414 7.97563H95.2097C95.2473 7.97534 95.2845 7.9676 95.3191 7.95286C95.3537 7.93813 95.385 7.91669 95.4113 7.88979C95.4376 7.86289 95.4583 7.83106 95.4722 7.79612C95.4861 7.76119 95.4929 7.72385 95.4923 7.68626V4.34471C95.4929 4.26976 95.5228 4.19802 95.5756 4.14481C95.6284 4.09159 95.7 4.06113 95.775 4.05994H98.9026C98.9782 4.05994 99.0507 4.08994 99.1041 4.14335C99.1575 4.19675 99.1876 4.26919 99.1876 4.34471V7.68626C99.1876 7.7624 99.2178 7.83542 99.2717 7.88925C99.3256 7.94309 99.3986 7.97334 99.4748 7.97334H102.715C102.753 7.97303 102.79 7.98019 102.824 7.99439C102.859 8.00859 102.891 8.02956 102.917 8.05606C102.944 8.08257 102.965 8.11409 102.979 8.14877C102.993 8.18346 103 8.22063 103 8.25812V11.1932C103 11.2308 102.993 11.268 102.979 11.3029C102.965 11.3377 102.944 11.3693 102.917 11.396C102.891 11.4227 102.859 11.4439 102.825 11.4583C102.79 11.4728 102.753 11.4802 102.715 11.4802H99.4794C99.4418 11.4799 99.4045 11.4871 99.3697 11.5013C99.3348 11.5154 99.3031 11.5364 99.2764 11.5628C99.2497 11.5893 99.2285 11.6208 99.2141 11.6555C99.1996 11.6902 99.1922 11.7274 99.1922 11.765V17.8418C99.1922 18.4665 99.438 18.7375 100.091 18.7375H102.552C102.589 18.7375 102.627 18.7449 102.661 18.7594C102.696 18.7738 102.728 18.795 102.754 18.8217C102.781 18.8484 102.802 18.8801 102.816 18.9149C102.83 18.9497 102.837 18.987 102.837 19.0246V22.0101C102.837 22.0857 102.807 22.1581 102.753 22.2115C102.7 22.2649 102.627 22.2949 102.552 22.2949H99.7092C96.8252 22.3018 95.2212 21.0065 95.2212 17.8694Z" fill="#485659"/>
<path d="M12.2094 0.270553L1.00654 6.73318C0.700366 6.91037 0.4462 7.16491 0.269535 7.47126C0.0928701 7.77761 -8.20885e-05 8.125 1.69218e-06 8.47859V27.437C-0.00047208 27.8018 0.0985467 28.1599 0.286417 28.4726C0.474288 28.7854 0.743906 29.0411 1.06629 29.2123L5.23262 31.4216C5.54053 31.5854 5.88571 31.6665 6.23439 31.657C6.58307 31.6474 6.92331 31.5477 7.22184 31.3674C7.52037 31.1871 7.76696 30.9324 7.9375 30.6283C8.10804 30.3242 8.19669 29.9811 8.19478 29.6325L8.12813 17.8832V13.1614C8.12799 12.8078 8.22118 12.4605 8.39831 12.1544C8.57544 11.8483 8.83024 11.5944 9.13697 11.4182L12.2209 9.63837C12.5271 9.46115 12.8747 9.36782 13.2286 9.36782C13.5825 9.36782 13.9301 9.46115 14.2363 9.63837L17.3203 11.4182C17.6264 11.5949 17.8806 11.849 18.0573 12.155C18.234 12.461 18.3269 12.8081 18.3268 13.1614V16.7211C18.3269 17.0744 18.234 17.4215 18.0573 17.7275C17.8806 18.0334 17.6264 18.2875 17.3203 18.4642L14.2363 20.2441C13.9297 20.4204 13.6751 20.6744 13.498 20.9804C13.3208 21.2864 13.2276 21.6337 13.2275 21.9872V26.7044C13.2278 27.0579 13.3212 27.4052 13.4983 27.7113C13.6753 28.0173 13.9297 28.2715 14.2361 28.4484C14.5424 28.6252 14.8899 28.7184 15.2437 28.7186C15.5975 28.7189 15.9451 28.6262 16.2517 28.4498L25.4438 23.1493C25.7507 22.9727 26.0056 22.7184 26.1827 22.4119C26.3598 22.1055 26.4529 21.7577 26.4526 21.4038V8.47859C26.4529 8.12469 26.3598 7.77696 26.1827 7.47051C26.0056 7.16406 25.7507 6.90972 25.4438 6.73318L14.2248 0.270553C13.9186 0.093327 13.571 0 13.2171 0C12.8633 0 12.5157 0.093327 12.2094 0.270553Z" fill="#009DC3"/>
</svg>
