<svg width="50" height="50" viewBox="0 0 50 50" fill="none" xmlns="http://www.w3.org/2000/svg">
<mask id="path-1-outside-1_72_113" maskUnits="userSpaceOnUse" x="3" y="3" width="31" height="44" fill="black">
<rect fill="white" x="3" y="3" width="31" height="44"/>
<path d="M6.49722 40.2422C7.45376 40.2422 8.2766 39.6955 8.69595 38.9038H14.1982C14.2034 39.1891 14.4344 39.4194 14.7216 39.4194C14.8882 39.4194 15.0435 39.4857 15.1577 39.6062C15.272 39.7259 15.3306 39.8823 15.3218 40.0639L15.283 42.5937C15.283 44.5991 16.6291 45.9998 18.5565 45.9998C20.4853 45.9998 21.8323 44.5991 21.8323 42.5849L21.7901 40.0471C21.7821 39.8826 21.8403 39.7263 21.9546 39.6065C22.0696 39.486 22.2241 39.4197 22.3915 39.4197C22.6782 39.4197 22.9093 39.1894 22.9148 38.9041H28.4164C28.8357 39.6959 29.6586 40.2426 30.6151 40.2426C31.9922 40.2426 33.1124 39.1224 33.1124 37.7454V36.2198C33.1124 34.8428 31.9922 33.7225 30.6151 33.7225C29.6586 33.7225 28.8358 34.2693 28.4164 35.061L22.9163 35.0603V34.7757C22.9163 34.4857 22.6815 34.2506 22.3911 34.2506H20.9553V31.9987H21.6844C22.7483 31.9987 23.6136 31.133 23.6136 30.0691V27.9265C23.6136 26.8626 22.7482 25.9969 21.6844 25.9969H20.9553V23.5886H23.0884C23.3785 23.5886 23.6136 23.3535 23.6136 23.0635V19.8537C23.6136 19.5636 23.3789 19.3285 23.0884 19.3285L14.0236 19.3289C13.7336 19.3289 13.4985 19.564 13.4985 19.854L13.4989 23.0639C13.4989 23.3539 13.7336 23.589 14.024 23.589H16.1594V25.9973L10.1561 25.9969V10.0022H13.4988V11.6003C13.4988 11.8904 13.7336 12.1255 14.024 12.1255L23.0888 12.1251C23.3788 12.1251 23.6139 11.89 23.6139 11.6V10.1117C23.6139 8.85336 22.8705 7.71007 21.7199 7.1996L17.5378 5.34363C15.5283 4.45227 13.3951 4 11.1972 4H8.04669C5.81534 4 4.00006 5.81529 4.00006 8.04626V27.9523C4.00006 30.1836 5.81534 31.9989 8.04669 31.9989H16.159V34.2508L14.7216 34.2511C14.4316 34.2511 14.1965 34.4862 14.1965 34.7763V35.0608L8.69595 35.0605C8.27663 34.2687 7.45376 33.722 6.49723 33.722C5.12022 33.722 4 34.8426 4 36.2196V37.7452C4 39.1222 5.12022 40.2424 6.49723 40.2424L6.49722 40.2422ZM30.6154 34.7721C31.4138 34.7721 32.0627 35.4214 32.0627 36.2194V37.745C32.0627 38.543 31.4138 39.1923 30.6154 39.1923C29.817 39.1923 29.1681 38.543 29.1681 37.745V36.2194C29.1681 35.4215 29.817 34.7721 30.6154 34.7721ZM28.1292 36.1102C28.1277 36.1472 28.1182 36.182 28.1182 36.219V37.7446C28.1182 37.7819 28.1277 37.8167 28.1292 37.8533L22.9165 37.8537V36.1101L28.1292 36.1102ZM14.5485 20.3789H22.5634V22.5385H14.5485V20.3789ZM17.209 23.5884H19.9055V25.9966H17.209V23.5884ZM5.04963 27.9522V8.04522C5.04963 6.39325 6.394 5.04887 8.04635 5.04887H11.1968C13.2472 5.04887 15.2373 5.47075 17.1119 6.3024L21.294 8.15838C22.0653 8.50078 22.5633 9.26688 22.5633 10.1106V11.0741H14.5484V9.47594C14.5484 9.1859 14.3137 8.95079 14.0233 8.95079H9.63058C9.34054 8.95079 9.10543 9.1859 9.10543 9.47594V26.5207C9.10543 26.8107 9.34017 27.0458 9.63058 27.0458H21.6841C22.1689 27.0458 22.5633 27.4402 22.5633 27.9255V30.0685C22.5633 30.5534 22.1689 30.9481 21.6841 30.9481H8.0462C6.39385 30.9481 5.04948 29.6038 5.04948 27.9514L5.04963 27.9522ZM17.209 31.9988H19.9055V34.2507H17.209V31.9988ZM15.2461 35.3006H21.8661V38.4533C21.6134 38.5375 21.3838 38.6826 21.1941 38.8818C20.8802 39.2114 20.7195 39.6428 20.7403 40.0807L20.7817 42.5933C20.7817 44.0245 19.9079 44.9496 18.5563 44.9496C17.2053 44.9496 16.3326 44.0245 16.3326 42.6018L16.3711 40.0972C16.3927 39.6431 16.2315 39.2114 15.9177 38.8818C15.728 38.6829 15.4984 38.5379 15.2461 38.454L15.2461 35.3006ZM14.1962 36.1099V37.8535H8.98348C8.98495 37.8165 8.99447 37.7817 8.99447 37.7447V36.2191C8.99447 36.1818 8.98495 36.147 8.98348 36.1103L14.1962 36.1099ZM5.04972 36.219C5.04972 35.4211 5.69865 34.7717 6.49704 34.7717C7.29542 34.7717 7.94435 35.421 7.94435 36.219V37.7446C7.94435 38.5426 7.29542 39.192 6.49704 39.192C5.69906 39.192 5.04972 38.5427 5.04972 37.7446V36.219Z"/>
</mask>
<path d="M6.49722 40.2422C7.45376 40.2422 8.2766 39.6955 8.69595 38.9038H14.1982C14.2034 39.1891 14.4344 39.4194 14.7216 39.4194C14.8882 39.4194 15.0435 39.4857 15.1577 39.6062C15.272 39.7259 15.3306 39.8823 15.3218 40.0639L15.283 42.5937C15.283 44.5991 16.6291 45.9998 18.5565 45.9998C20.4853 45.9998 21.8323 44.5991 21.8323 42.5849L21.7901 40.0471C21.7821 39.8826 21.8403 39.7263 21.9546 39.6065C22.0696 39.486 22.2241 39.4197 22.3915 39.4197C22.6782 39.4197 22.9093 39.1894 22.9148 38.9041H28.4164C28.8357 39.6959 29.6586 40.2426 30.6151 40.2426C31.9922 40.2426 33.1124 39.1224 33.1124 37.7454V36.2198C33.1124 34.8428 31.9922 33.7225 30.6151 33.7225C29.6586 33.7225 28.8358 34.2693 28.4164 35.061L22.9163 35.0603V34.7757C22.9163 34.4857 22.6815 34.2506 22.3911 34.2506H20.9553V31.9987H21.6844C22.7483 31.9987 23.6136 31.133 23.6136 30.0691V27.9265C23.6136 26.8626 22.7482 25.9969 21.6844 25.9969H20.9553V23.5886H23.0884C23.3785 23.5886 23.6136 23.3535 23.6136 23.0635V19.8537C23.6136 19.5636 23.3789 19.3285 23.0884 19.3285L14.0236 19.3289C13.7336 19.3289 13.4985 19.564 13.4985 19.854L13.4989 23.0639C13.4989 23.3539 13.7336 23.589 14.024 23.589H16.1594V25.9973L10.1561 25.9969V10.0022H13.4988V11.6003C13.4988 11.8904 13.7336 12.1255 14.024 12.1255L23.0888 12.1251C23.3788 12.1251 23.6139 11.89 23.6139 11.6V10.1117C23.6139 8.85336 22.8705 7.71007 21.7199 7.1996L17.5378 5.34363C15.5283 4.45227 13.3951 4 11.1972 4H8.04669C5.81534 4 4.00006 5.81529 4.00006 8.04626V27.9523C4.00006 30.1836 5.81534 31.9989 8.04669 31.9989H16.159V34.2508L14.7216 34.2511C14.4316 34.2511 14.1965 34.4862 14.1965 34.7763V35.0608L8.69595 35.0605C8.27663 34.2687 7.45376 33.722 6.49723 33.722C5.12022 33.722 4 34.8426 4 36.2196V37.7452C4 39.1222 5.12022 40.2424 6.49723 40.2424L6.49722 40.2422ZM30.6154 34.7721C31.4138 34.7721 32.0627 35.4214 32.0627 36.2194V37.745C32.0627 38.543 31.4138 39.1923 30.6154 39.1923C29.817 39.1923 29.1681 38.543 29.1681 37.745V36.2194C29.1681 35.4215 29.817 34.7721 30.6154 34.7721ZM28.1292 36.1102C28.1277 36.1472 28.1182 36.182 28.1182 36.219V37.7446C28.1182 37.7819 28.1277 37.8167 28.1292 37.8533L22.9165 37.8537V36.1101L28.1292 36.1102ZM14.5485 20.3789H22.5634V22.5385H14.5485V20.3789ZM17.209 23.5884H19.9055V25.9966H17.209V23.5884ZM5.04963 27.9522V8.04522C5.04963 6.39325 6.394 5.04887 8.04635 5.04887H11.1968C13.2472 5.04887 15.2373 5.47075 17.1119 6.3024L21.294 8.15838C22.0653 8.50078 22.5633 9.26688 22.5633 10.1106V11.0741H14.5484V9.47594C14.5484 9.1859 14.3137 8.95079 14.0233 8.95079H9.63058C9.34054 8.95079 9.10543 9.1859 9.10543 9.47594V26.5207C9.10543 26.8107 9.34017 27.0458 9.63058 27.0458H21.6841C22.1689 27.0458 22.5633 27.4402 22.5633 27.9255V30.0685C22.5633 30.5534 22.1689 30.9481 21.6841 30.9481H8.0462C6.39385 30.9481 5.04948 29.6038 5.04948 27.9514L5.04963 27.9522ZM17.209 31.9988H19.9055V34.2507H17.209V31.9988ZM15.2461 35.3006H21.8661V38.4533C21.6134 38.5375 21.3838 38.6826 21.1941 38.8818C20.8802 39.2114 20.7195 39.6428 20.7403 40.0807L20.7817 42.5933C20.7817 44.0245 19.9079 44.9496 18.5563 44.9496C17.2053 44.9496 16.3326 44.0245 16.3326 42.6018L16.3711 40.0972C16.3927 39.6431 16.2315 39.2114 15.9177 38.8818C15.728 38.6829 15.4984 38.5379 15.2461 38.454L15.2461 35.3006ZM14.1962 36.1099V37.8535H8.98348C8.98495 37.8165 8.99447 37.7817 8.99447 37.7447V36.2191C8.99447 36.1818 8.98495 36.147 8.98348 36.1103L14.1962 36.1099ZM5.04972 36.219C5.04972 35.4211 5.69865 34.7717 6.49704 34.7717C7.29542 34.7717 7.94435 35.421 7.94435 36.219V37.7446C7.94435 38.5426 7.29542 39.192 6.49704 39.192C5.69906 39.192 5.04972 38.5427 5.04972 37.7446V36.219Z" fill="#68787B"/>
<path d="M6.49722 40.2422C7.45376 40.2422 8.2766 39.6955 8.69595 38.9038H14.1982C14.2034 39.1891 14.4344 39.4194 14.7216 39.4194C14.8882 39.4194 15.0435 39.4857 15.1577 39.6062C15.272 39.7259 15.3306 39.8823 15.3218 40.0639L15.283 42.5937C15.283 44.5991 16.6291 45.9998 18.5565 45.9998C20.4853 45.9998 21.8323 44.5991 21.8323 42.5849L21.7901 40.0471C21.7821 39.8826 21.8403 39.7263 21.9546 39.6065C22.0696 39.486 22.2241 39.4197 22.3915 39.4197C22.6782 39.4197 22.9093 39.1894 22.9148 38.9041H28.4164C28.8357 39.6959 29.6586 40.2426 30.6151 40.2426C31.9922 40.2426 33.1124 39.1224 33.1124 37.7454V36.2198C33.1124 34.8428 31.9922 33.7225 30.6151 33.7225C29.6586 33.7225 28.8358 34.2693 28.4164 35.061L22.9163 35.0603V34.7757C22.9163 34.4857 22.6815 34.2506 22.3911 34.2506H20.9553V31.9987H21.6844C22.7483 31.9987 23.6136 31.133 23.6136 30.0691V27.9265C23.6136 26.8626 22.7482 25.9969 21.6844 25.9969H20.9553V23.5886H23.0884C23.3785 23.5886 23.6136 23.3535 23.6136 23.0635V19.8537C23.6136 19.5636 23.3789 19.3285 23.0884 19.3285L14.0236 19.3289C13.7336 19.3289 13.4985 19.564 13.4985 19.854L13.4989 23.0639C13.4989 23.3539 13.7336 23.589 14.024 23.589H16.1594V25.9973L10.1561 25.9969V10.0022H13.4988V11.6003C13.4988 11.8904 13.7336 12.1255 14.024 12.1255L23.0888 12.1251C23.3788 12.1251 23.6139 11.89 23.6139 11.6V10.1117C23.6139 8.85336 22.8705 7.71007 21.7199 7.1996L17.5378 5.34363C15.5283 4.45227 13.3951 4 11.1972 4H8.04669C5.81534 4 4.00006 5.81529 4.00006 8.04626V27.9523C4.00006 30.1836 5.81534 31.9989 8.04669 31.9989H16.159V34.2508L14.7216 34.2511C14.4316 34.2511 14.1965 34.4862 14.1965 34.7763V35.0608L8.69595 35.0605C8.27663 34.2687 7.45376 33.722 6.49723 33.722C5.12022 33.722 4 34.8426 4 36.2196V37.7452C4 39.1222 5.12022 40.2424 6.49723 40.2424L6.49722 40.2422ZM30.6154 34.7721C31.4138 34.7721 32.0627 35.4214 32.0627 36.2194V37.745C32.0627 38.543 31.4138 39.1923 30.6154 39.1923C29.817 39.1923 29.1681 38.543 29.1681 37.745V36.2194C29.1681 35.4215 29.817 34.7721 30.6154 34.7721ZM28.1292 36.1102C28.1277 36.1472 28.1182 36.182 28.1182 36.219V37.7446C28.1182 37.7819 28.1277 37.8167 28.1292 37.8533L22.9165 37.8537V36.1101L28.1292 36.1102ZM14.5485 20.3789H22.5634V22.5385H14.5485V20.3789ZM17.209 23.5884H19.9055V25.9966H17.209V23.5884ZM5.04963 27.9522V8.04522C5.04963 6.39325 6.394 5.04887 8.04635 5.04887H11.1968C13.2472 5.04887 15.2373 5.47075 17.1119 6.3024L21.294 8.15838C22.0653 8.50078 22.5633 9.26688 22.5633 10.1106V11.0741H14.5484V9.47594C14.5484 9.1859 14.3137 8.95079 14.0233 8.95079H9.63058C9.34054 8.95079 9.10543 9.1859 9.10543 9.47594V26.5207C9.10543 26.8107 9.34017 27.0458 9.63058 27.0458H21.6841C22.1689 27.0458 22.5633 27.4402 22.5633 27.9255V30.0685C22.5633 30.5534 22.1689 30.9481 21.6841 30.9481H8.0462C6.39385 30.9481 5.04948 29.6038 5.04948 27.9514L5.04963 27.9522ZM17.209 31.9988H19.9055V34.2507H17.209V31.9988ZM15.2461 35.3006H21.8661V38.4533C21.6134 38.5375 21.3838 38.6826 21.1941 38.8818C20.8802 39.2114 20.7195 39.6428 20.7403 40.0807L20.7817 42.5933C20.7817 44.0245 19.9079 44.9496 18.5563 44.9496C17.2053 44.9496 16.3326 44.0245 16.3326 42.6018L16.3711 40.0972C16.3927 39.6431 16.2315 39.2114 15.9177 38.8818C15.728 38.6829 15.4984 38.5379 15.2461 38.454L15.2461 35.3006ZM14.1962 36.1099V37.8535H8.98348C8.98495 37.8165 8.99447 37.7817 8.99447 37.7447V36.2191C8.99447 36.1818 8.98495 36.147 8.98348 36.1103L14.1962 36.1099ZM5.04972 36.219C5.04972 35.4211 5.69865 34.7717 6.49704 34.7717C7.29542 34.7717 7.94435 35.421 7.94435 36.219V37.7446C7.94435 38.5426 7.29542 39.192 6.49704 39.192C5.69906 39.192 5.04972 38.5427 5.04972 37.7446V36.219Z" stroke="#68787B" stroke-width="0.2" mask="url(#path-1-outside-1_72_113)"/>
<path d="M45.4749 13.4866H14.0488C13.7312 13.4866 13.4737 13.744 13.4737 14.0617V17.4788C13.4737 17.7964 13.7308 18.054 14.0488 18.054L45.4749 18.0536C45.7925 18.0536 46.05 17.7961 46.05 17.4784V14.0613C46.05 13.7441 45.7929 13.4866 45.4749 13.4866ZM44.9001 16.9037H14.6241V14.6365H44.9001V16.9037Z" fill="#68787B" stroke="#68787B" stroke-width="0.1"/>
</svg>
