<svg width="50" height="50" viewBox="0 0 50 50" fill="none" xmlns="http://www.w3.org/2000/svg">
<path d="M44.443 12.5749L44.4429 12.5744H44.5124C44.8097 12.5744 45.05 12.8151 45.05 13.112V20.1667C45.05 20.4636 44.8097 20.7043 44.5124 20.7043H38.9386L43.8731 44.4017L44.443 12.5749ZM44.443 12.5749H39.9317C40.7847 11.8929 41.3344 10.846 41.3344 9.6712C41.3344 7.6189 39.6648 5.95 37.6132 5.95C35.5617 5.95 33.892 7.61925 33.892 9.6712C33.892 10.8461 34.4418 11.8929 35.2948 12.5749H15.5844C16.4374 11.8929 16.9871 10.846 16.9871 9.6712C16.9871 7.6189 15.3175 5.95 13.2659 5.95C11.2136 5.95 9.54403 7.61924 9.54403 9.6712C9.54403 10.846 10.0938 11.8929 10.9474 12.5749H6.48764C6.19034 12.5749 5.95 12.8156 5.95 13.1125V20.1676C5.95 20.4641 6.19031 20.7052 6.48764 20.7052H12.0689L7.13374 44.4017C7.10035 44.5603 7.14087 44.7253 7.24285 44.8506M44.443 12.5749L12.4548 44.6211M7.24285 44.8506C7.24283 44.8505 7.24281 44.8505 7.24279 44.8505L7.28162 44.819L7.24285 44.8506ZM7.24285 44.8506C7.34451 44.9758 7.49818 45.0489 7.65941 45.0489H11.9288C12.1836 45.0489 12.4034 44.8701 12.4548 44.6211M12.4548 44.6211L12.4058 44.6109L12.4548 44.6211ZM43.7252 44.819L43.764 44.8505C43.764 44.8505 43.764 44.8505 43.7639 44.8506C43.6623 44.9758 43.5093 45.0489 43.3474 45.0489H39.078C38.8235 45.0489 38.6037 44.8701 38.552 44.6211L35.8229 31.5176H15.1839L12.4548 44.621L43.8731 44.4018L43.8241 44.412C43.8544 44.5558 43.8177 44.7054 43.7252 44.819ZM43.7252 44.819C43.633 44.9326 43.4943 44.9989 43.3474 44.9989H39.078C38.8471 44.9989 38.6479 44.8367 38.6009 44.6109L35.8636 31.4676L43.7252 44.819ZM34.9668 9.6712V9.64971C34.9784 8.20049 36.1611 7.02491 37.613 7.02491C39.0721 7.02491 40.2593 8.21212 40.2593 9.6712C40.2593 11.1303 39.0724 12.3175 37.6137 12.3175C36.1549 12.3175 34.9668 11.1303 34.9668 9.6712ZM13.2663 12.3175C11.8144 12.3175 10.6314 11.142 10.6197 9.69291V9.6712C10.6197 8.21213 11.8069 7.02491 13.2666 7.02491C14.7257 7.02491 15.9129 8.21212 15.9129 9.6712C15.9129 11.1303 14.7257 12.3175 13.2663 12.3175ZM37.8009 19.6297H32.9337L38.5125 13.6495H43.3793L37.8009 19.6297ZM18.7882 19.6297H13.9214L19.5001 13.6495H24.3669L18.7882 19.6297ZM13.1626 13.6495H18.03L12.4506 19.6297H7.58383L13.1626 13.6495ZM20.2589 19.6297L25.8377 13.6495H30.7044L25.1257 19.6297H20.2589ZM26.5962 19.6297L32.1748 13.6495H37.0416L31.4632 19.6297H26.5962ZM7.02583 13.6495H11.6929L7.02583 18.652V13.6495ZM16.3392 20.7052L11.4929 43.9746H8.32141L13.1674 20.7052H16.3392ZM33.5725 20.7043L35.6004 30.4422H15.4087L17.4367 20.7043H33.5725ZM37.8418 20.7052L42.6874 43.9746H39.5159L34.67 20.7052H37.8418ZM39.2716 19.6302L43.9758 14.588V19.6302H39.2716Z" fill="#68787B" stroke="#68787B" stroke-width="0.1"/>
</svg>
