<svg width="41" height="41" viewBox="0 0 41 41" fill="none" xmlns="http://www.w3.org/2000/svg">
<path d="M39.4431 7.5749L39.4429 7.57438H39.5124C39.8097 7.57438 40.05 7.8151 40.05 8.11202V15.1667C40.05 15.4636 39.8097 15.7043 39.5124 15.7043H33.9386L38.8731 39.4017L39.4431 7.5749ZM39.4431 7.5749H34.9317C35.7847 6.89294 36.3344 5.84605 36.3344 4.6712C36.3344 2.6189 34.6648 0.95 32.6132 0.95C30.5617 0.95 28.892 2.61925 28.892 4.6712C28.892 5.84605 29.4418 6.89291 30.2948 7.5749H10.5844C11.4374 6.89294 11.9871 5.84605 11.9871 4.6712C11.9871 2.6189 10.3175 0.95 8.26593 0.95C6.21365 0.95 4.54403 2.61924 4.54403 4.6712C4.54403 5.84605 5.0938 6.89291 5.94736 7.5749H1.48764C1.19034 7.5749 0.95 7.81562 0.95 8.11254V15.1676C0.95 15.4641 1.19031 15.7052 1.48764 15.7052H7.06892L2.13374 39.4017C2.10035 39.5603 2.14087 39.7253 2.24285 39.8506M39.4431 7.5749L38.764 39.8505C38.6624 39.9758 38.5094 40.0489 38.3474 40.0489H34.078C33.8235 40.0489 33.6037 39.8701 33.552 39.6211L30.8229 26.5176M2.24285 39.8506C2.24283 39.8505 2.24281 39.8505 2.24279 39.8505L2.28162 39.819L2.24285 39.8506ZM2.24285 39.8506C2.34451 39.9758 2.49818 40.0489 2.65941 40.0489H6.92875C7.18364 40.0489 7.40342 39.8701 7.45481 39.621M7.45481 39.621L10.1839 26.5176M7.45481 39.621L7.45479 39.6211L7.40684 39.6111L7.45481 39.621ZM10.1839 26.5176H30.8229M10.1839 26.5176H10.1432V26.4676L10.1922 26.4778L10.1839 26.5176ZM30.8229 26.5176L30.8146 26.4778L30.8636 26.4676V26.5176H30.8229ZM38.8241 39.412L38.8731 39.4018L38.8241 39.412ZM29.9668 4.6712V4.64995C29.9782 3.20062 31.161 2.02491 32.613 2.02491C34.0721 2.02491 35.2593 3.21212 35.2593 4.6712C35.2593 6.13029 34.0724 7.31749 32.6137 7.31749C31.1549 7.31749 29.9668 6.13025 29.9668 4.6712ZM8.26628 7.31749C6.81444 7.31749 5.63144 6.14203 5.61972 4.69291V4.6712C5.61972 3.21213 6.80693 2.02491 8.26662 2.02491C9.7257 2.02491 10.9129 3.21212 10.9129 4.6712C10.9129 6.13027 9.7257 7.31749 8.26628 7.31749ZM32.8009 14.6297H27.9337L33.5125 8.64955H38.3793L32.8009 14.6297ZM13.7882 14.6297H8.92138L14.5001 8.64955H19.3669L13.7882 14.6297ZM8.16257 8.64955H13.03L7.45062 14.6297H2.58383L8.16257 8.64955ZM15.2589 14.6297L20.8377 8.64955H25.7044L20.1257 14.6297H15.2589ZM21.5962 14.6297L27.1748 8.64955H32.0416L26.4632 14.6297H21.5962ZM6.69293 8.64955L2.02583 13.652V8.64955H6.69293ZM11.3392 15.7052L6.49289 38.9746H3.32141L8.16736 15.7052H11.3392ZM28.5725 15.7043L30.6004 25.4422H10.4087L12.4367 15.7043H28.5725ZM32.8418 15.7052L37.6874 38.9746H34.5159L29.67 15.7052H32.8418ZM34.2716 14.6302L38.9758 9.588V14.6302H34.2716Z" fill="#68787B" stroke="#68787B" stroke-width="0.1"/>
</svg>
